<?xml version="1.0" encoding="UTF-8"?>
<!DOCTYPE svg PUBLIC "-//W3C//DTD SVG 1.1//EN" "http://www.w3.org/Graphics/SVG/1.1/DTD/svg11.dtd">
<!-- Creator: CorelDRAW 2018 (64 Bit Versão de avaliação) -->
<svg xmlns="http://www.w3.org/2000/svg" xml:space="preserve" width="859px" height="1999px" version="1.1" style="shape-rendering:geometricPrecision; text-rendering:geometricPrecision; image-rendering:optimizeQuality; fill-rule:evenodd; clip-rule:evenodd"
viewBox="0 0 202.34 470.98"
 xmlns:xlink="http://www.w3.org/1999/xlink">
 <defs>
  <style type="text/css">
   <![CDATA[
    .fil0 {fill:white;fill-rule:nonzero}
   ]]>
  </style>
 </defs>
 <g id="Camada_x0020_1">
  <metadata id="CorelCorpID_0Corel-Layer"/>
  <path class="fil0" d="M27.06 0l0 175.97c0,0.3 -0.1,0.58 -0.26,0.81l-19.44 33.67 0 39.5c0.93,0.5 1.56,1.48 1.56,2.6 0,1.63 -1.32,2.94 -2.95,2.94 -1.63,0 -2.94,-1.31 -2.94,-2.94 0,-1.12 0.62,-2.1 1.55,-2.6l0 -39.86 0.01 0c0,-0.23 0.05,-0.47 0.18,-0.69l19.51 -33.79 0 -175.61 2.78 0zm-22.72 446.54c0.92,0.5 1.55,1.48 1.55,2.6 0,1.63 -1.32,2.95 -2.94,2.95 -1.63,0 -2.95,-1.32 -2.95,-2.95 0,-1.12 0.63,-2.1 1.55,-2.6l0 -26.51 0.01 0c0,-0.23 0.06,-0.47 0.18,-0.69l18.29 -31.67 0 -36.85 0.01 0c0,-0.23 0.06,-0.47 0.18,-0.69l18.29 -31.67 0 -318.46 2.78 0 0 318.82c0,0.3 -0.09,0.57 -0.25,0.8l-18.22 31.56 0 114.26c0.92,0.5 1.55,1.47 1.55,2.6 0,1.62 -1.32,2.94 -2.95,2.94 -1.62,0 -2.94,-1.32 -2.94,-2.94 0,-1.13 0.63,-2.1 1.55,-2.6l0 -72.23 -15.69 27.18 0 26.15zm27.31 -27.24c0.93,0.5 1.55,1.47 1.55,2.6 0,1.62 -1.31,2.94 -2.94,2.94 -1.63,0 -2.95,-1.32 -2.95,-2.94 0,-1.13 0.63,-2.1 1.56,-2.6l0 -68.48 0 0c0,-0.23 0.06,-0.47 0.19,-0.69l18.29 -31.67 0 -318.46 2.78 0 0 318.82c0,0.3 -0.1,0.57 -0.26,0.8l-18.22 31.56 0 68.12zm31.22 -76.57c0.92,0.49 1.55,1.47 1.55,2.59 0,1.63 -1.32,2.95 -2.94,2.95 -1.63,0 -2.95,-1.32 -2.95,-2.95 0,-1.12 0.63,-2.1 1.56,-2.59l0 -52.28 0 0c0,-0.24 0.06,-0.48 0.19,-0.69l18.28 -31.68 0 -258.08 2.79 0 0 258.44c0,0.3 -0.1,0.58 -0.26,0.81l-18.22 31.56 0 51.92zm16.19 46.49c0.93,0.5 1.55,1.47 1.55,2.6 0,1.62 -1.31,2.94 -2.94,2.94 -1.63,0 -2.95,-1.32 -2.95,-2.94 0,-1.13 0.63,-2.1 1.56,-2.6l0 -68.48 0 0c0,-0.27 0.08,-0.55 0.25,-0.79l11.6 -16.78 0 -303.17 2.79 0 0 303.6 0 0.01 0 56.3c0.92,0.49 1.55,1.47 1.55,2.59 0,1.63 -1.32,2.95 -2.94,2.95 -1.63,0 -2.95,-1.32 -2.95,-2.95 0,-1.12 0.63,-2.1 1.55,-2.59l0 -51.86 -9.07 13.12 0 68.05zm20.87 23.7c0.93,0.5 1.56,1.47 1.56,2.6 0,1.62 -1.32,2.94 -2.95,2.94 -1.63,0 -2.94,-1.32 -2.94,-2.94 0,-1.13 0.62,-2.1 1.55,-2.6l0 -412.92 2.78 0 0 261.51 18.14 31.42c0.13,0.22 0.19,0.46 0.19,0.7l0 0 0 80.02c0.93,0.5 1.56,1.47 1.56,2.6 0,1.62 -1.32,2.94 -2.95,2.94 -1.62,0 -2.94,-1.32 -2.94,-2.94 0,-1.13 0.63,-2.1 1.55,-2.6l0 -45.72 -2.72 4.72c0.28,0.45 0.44,0.98 0.44,1.55 0,1.63 -1.32,2.95 -2.94,2.95 -1.63,0 -2.95,-1.32 -2.95,-2.95 0,-1.62 1.32,-2.94 2.95,-2.94l0.09 0 5.13 -8.88 0 -28.39 -15.55 -26.93 0 145.86zm29.23 -70.19c0.92,0.49 1.55,1.47 1.55,2.59 0,1.63 -1.32,2.95 -2.94,2.95 -1.63,0 -2.95,-1.32 -2.95,-2.95 0,-1.12 0.63,-2.1 1.55,-2.59l0 -54.46 -18.88 -31.48c-0.16,-0.22 -0.26,-0.5 -0.26,-0.8l0 -255.99 2.78 0 0 255.61 18.95 31.57c0.13,0.22 0.19,0.47 0.19,0.71l0.01 0 0 11.42 18.14 31.42c0.12,0.22 0.18,0.46 0.18,0.69l0.01 0 0 28.98c0.92,0.49 1.55,1.47 1.55,2.59 0,1.63 -1.32,2.95 -2.94,2.95 -1.63,0 -2.95,-1.32 -2.95,-2.95 0,-1.12 0.63,-2.1 1.56,-2.59l0 -28.62 -15.55 -26.93 0 37.88zm46.58 76.57c0.93,0.5 1.55,1.47 1.55,2.6 0,1.62 -1.31,2.94 -2.94,2.94 -1.63,0 -2.95,-1.32 -2.95,-2.94 0,-1.13 0.63,-2.1 1.56,-2.6l0 -68.42 -18.47 -31.99c-0.16,-0.23 -0.26,-0.51 -0.26,-0.81l0 -318.08 2.78 0 0 317.72 18.54 32.11c0.13,0.21 0.19,0.45 0.18,0.69l0.01 0 0 68.78zm12.14 -81.24c0.92,0.5 1.55,1.48 1.55,2.6 0,1.63 -1.32,2.94 -2.94,2.94 -1.63,0 -2.95,-1.31 -2.95,-2.94 0,-1.12 0.63,-2.1 1.55,-2.6l0 -251.76 -19.33 -33.49c-0.15,-0.22 -0.24,-0.49 -0.24,-0.78l0 -52.03 2.78 0 0 51.67 19.39 33.57c0.12,0.22 0.18,0.46 0.18,0.7l0.01 0 0 252.12zm12.91 -72.64c0.92,0.49 1.55,1.47 1.55,2.59 0,1.63 -1.32,2.95 -2.94,2.95 -1.63,0 -2.95,-1.32 -2.95,-2.95 0,-1.12 0.63,-2.1 1.55,-2.59l0 -180.47 -19.97 -34.59c-0.15,-0.23 -0.24,-0.49 -0.24,-0.78l0 -49.58 2.78 0 0 49.21 20.03 34.68c0.12,0.22 0.18,0.46 0.18,0.7l0.01 0 0 180.83zm-71.43 -20.13c0.93,0.5 1.56,1.47 1.56,2.6 0,1.62 -1.32,2.94 -2.95,2.94 -1.62,0 -2.94,-1.32 -2.94,-2.94 0,-1.13 0.63,-2.1 1.55,-2.6l0 -65.08 0 0c0,-0.24 0.06,-0.48 0.19,-0.7l19.12 -33.11 0 -146.4 2.78 0 0 146.77c0,0.29 -0.09,0.56 -0.24,0.78l-19.07 33.02 0 64.72zm-1.51 -112.78c0.93,0.5 1.56,1.48 1.56,2.6 0,1.63 -1.32,2.95 -2.95,2.95 -1.62,0 -2.94,-1.32 -2.94,-2.95 0,-1.12 0.63,-2.1 1.55,-2.6l0 -9.06 0 0c0,-0.23 0.06,-0.47 0.19,-0.69l10.93 -18.93 0 -103.83 2.78 0 0 128.22c0.93,0.5 1.56,1.47 1.56,2.6 0,1.62 -1.32,2.94 -2.95,2.94 -1.62,0 -2.94,-1.32 -2.94,-2.94 0,-1.13 0.63,-2.1 1.55,-2.6l0 -18.84 -8.34 14.44 0 8.69zm-8.76 -37.42c0.93,0.49 1.56,1.47 1.56,2.59 0,1.63 -1.32,2.95 -2.95,2.95 -1.62,0 -2.94,-1.32 -2.94,-2.95 0,-1.12 0.63,-2.1 1.55,-2.59l0 -95.09 2.78 0 0 95.09zm-49.82 -95.09l0 233.41c0,0.76 -0.62,1.39 -1.39,1.39 -0.77,0 -1.39,-0.63 -1.39,-1.39l0 -233.41 2.78 0zm-9.57 0l0 258.44c0,0.77 -0.62,1.39 -1.39,1.39 -0.77,0 -1.39,-0.62 -1.39,-1.39l0 -258.44 2.78 0z"/>
 </g>
</svg>
